<svg width="1920" height="279" viewBox="0 0 1920 279" fill="none" xmlns="http://www.w3.org/2000/svg">
<path d="M368.429 173.184H371.772C383.53 173.184 393.083 163.643 393.083 151.899V0.160156L315.826 0.160156V24.7831L368.429 24.7831V173.184Z" fill="#F7F9F9"/>
<path d="M473.663 149.034C473.663 206.614 426.749 253.469 369.096 253.469H315.711V278.116L656.292 278.116V253.469H602.907C545.231 253.469 498.317 206.614 498.317 149.034V24.7831L526.29 24.7831V151.331C526.29 192.077 559.478 225.224 600.276 225.224H656.292L656.198 53.0759L631.52 53.0759V200.601H600.252C573.061 200.601 550.944 178.511 550.944 151.331V0.160156L421.06 0.160156V151.331C421.06 178.511 398.942 200.601 371.752 200.601H340.507L340.507 53.0759L315.806 53.0759L315.711 225.224H371.752C412.526 225.224 445.714 192.077 445.714 151.331V24.7831L473.663 24.7831V149.034ZM600.228 173.184H603.571V24.7831L656.198 24.7831V0.160156L578.917 0.160156V151.899C578.917 163.643 588.47 173.184 600.228 173.184Z" fill="#F7F9F9"/>
<path d="M919.263 105.098H915.921C904.163 105.098 894.609 114.639 894.609 126.382V278.121H971.867V253.498H919.263V105.098Z" fill="#F7F9F9"/>
<path d="M814.055 129.241C814.055 71.6615 860.969 24.8068 918.622 24.8068L972.007 24.8068V0.160156L631.426 0.160156V24.8068L684.811 24.8068C742.488 24.8068 789.401 71.6615 789.401 129.241V253.493H761.429V126.945C761.429 86.1985 728.24 53.0522 687.443 53.0522L631.426 53.0522L631.521 225.2H656.198V77.6752L687.466 77.6752C714.657 77.6752 736.774 99.7648 736.774 126.945V278.116L866.659 278.116V126.945C866.659 99.7648 888.776 77.6752 915.967 77.6752L947.211 77.6752V225.2H971.912L972.007 53.0522L915.967 53.0522C875.193 53.0522 842.005 86.1985 842.005 126.945V253.493H814.055V129.241ZM687.49 105.092H684.148V253.493H631.521V278.116H708.778V126.377C708.778 114.633 699.224 105.092 687.466 105.092H687.49Z" fill="#F7F9F9"/>
<path d="M1000.24 173.184H1003.59C1015.34 173.184 1024.9 163.643 1024.9 151.899V0.160156L947.641 0.160156V24.7831L1000.24 24.7831V173.184Z" fill="#F7F9F9"/>
<path d="M1105.45 149.034C1105.45 206.614 1058.54 253.469 1000.88 253.469H947.498V278.116L1288.08 278.116V253.469H1234.69C1177.02 253.469 1130.1 206.614 1130.1 149.034V24.7831L1158.08 24.7831V151.331C1158.08 192.077 1191.26 225.224 1232.06 225.224H1288.08L1287.98 53.0759L1263.31 53.0759V200.601H1232.04C1204.85 200.601 1182.73 178.511 1182.73 151.331V0.160156L1052.85 0.160156V151.331C1052.85 178.511 1030.73 200.601 1003.54 200.601H972.294V53.0759L947.593 53.0759L947.498 225.224H1003.54C1044.31 225.224 1077.5 192.077 1077.5 151.331V24.7831L1105.45 24.7831V149.034ZM1232.02 173.184H1235.36V24.7831L1287.98 24.7831V0.160156L1210.7 0.160156V151.899C1210.7 163.643 1220.26 173.184 1232.02 173.184Z" fill="#F7F9F9"/>
<path d="M1631.65 173.024H1634.99C1646.75 173.024 1656.31 163.482 1656.31 151.739V0L1579.05 0V24.623L1631.65 24.623V173.024Z" fill="#F7F9F9"/>
<path d="M1736.86 148.874C1736.86 206.454 1689.94 253.309 1632.29 253.309H1578.91V277.956L1919.49 277.956V253.309H1866.1C1808.43 253.309 1761.51 206.454 1761.51 148.874V24.623L1789.49 24.623V151.171C1789.49 191.917 1822.67 225.063 1863.47 225.063H1919.49L1919.39 22.2554L1894.72 22.2554V200.441H1863.45C1836.26 200.441 1814.14 178.351 1814.14 151.171V0L1684.25 0V151.171C1684.25 178.351 1662.14 200.441 1634.95 200.441H1603.7V52.9157L1579 52.9157L1578.91 225.063H1634.95C1675.72 225.063 1708.91 191.917 1708.91 151.171V24.623L1736.86 24.623V148.874ZM1863.42 173.024H1866.77V24.623L1919.39 24.623V0L1842.11 0V151.739C1842.11 163.482 1851.67 173.024 1863.42 173.024Z" fill="#F7F9F9"/>
<path d="M1551.07 105.098H1547.73C1535.97 105.098 1526.42 114.639 1526.42 126.382V278.121H1603.68V253.498H1551.07V105.098Z" fill="#F7F9F9"/>
<path d="M1445.84 129.241C1445.84 71.6615 1492.75 24.8068 1550.41 24.8068L1603.79 24.8068V0.160156L1263.21 0.160156V24.8068L1316.6 24.8068C1374.27 24.8068 1421.19 71.6615 1421.19 129.241V253.493H1393.21V126.945C1393.21 86.1985 1360.03 53.0522 1319.23 53.0522L1263.21 53.0522L1263.31 225.2H1287.98V77.6752L1319.25 77.6752C1346.44 77.6752 1368.56 99.7648 1368.56 126.945V278.116L1498.44 278.116V126.945C1498.44 99.7648 1520.56 77.6752 1547.75 77.6752L1579 77.6752V225.2H1603.7L1603.79 53.0522L1547.75 53.0522C1506.98 53.0522 1473.79 86.1985 1473.79 126.945V253.493H1445.84V129.241ZM1319.28 105.092H1315.93V253.493H1263.31V278.116H1340.56V126.377C1340.56 114.633 1331.01 105.092 1319.25 105.092H1319.28Z" fill="#F7F9F9"/>
<path d="M287.863 105.098H284.521C272.762 105.098 263.209 114.639 263.209 126.382V278.121H340.466V253.498H287.863V105.098Z" fill="#F7F9F9"/>
<path d="M287.196 24.8068L340.581 24.8068V0.160156L0 0.160156L0 24.8068L53.3855 24.8068C111.062 24.8068 157.976 71.6615 157.976 129.265V253.493H130.003V126.921C130.003 86.1748 96.8146 53.0285 56.0168 53.0285L0 53.0285L0.118529 278.116H77.3758L77.3758 126.377C77.3758 114.633 67.8223 105.092 56.0643 105.092H52.7217L52.7217 253.493H24.7726L24.7726 77.6752L56.0405 77.6752C83.2311 77.6752 105.325 99.7648 105.325 126.945L105.325 278.116L235.209 278.116L235.209 126.921C235.209 99.7648 257.327 77.6515 284.541 77.6515L315.785 77.6515L315.785 225.2H340.463L340.558 53.0285L284.541 53.0285C243.743 53.0285 210.555 86.1748 210.555 126.921V253.469H182.606V129.241C182.606 71.6378 229.52 24.7831 287.149 24.7831L287.196 24.8068Z" fill="#F7F9F9"/>
</svg>
